::::::: pitic Presents ::::::::

:::::::: Whats.Your.Number.2011.DC.BRRip.720.x264.Feel-Free ::::::::


Genre:Comedy | Romance
Language:English
IMDb:http://www.imdb.com/title/tt0770703/
Source:DC 1080p BluRay x264-SPARKS Thanks!

Format : MPEG-4
Format profile : Base Media
Codec ID : isom
File size : 2.38 GiB
Duration : 1h 57mn
Overall bit rate : 2 905 Kbps

Video
ID : 1
Format : AVC
Format/Info : Advanced Video Codec
Format profile : High@L5.1
Format settings, CABAC : Yes
Format settings, ReFrames : 3 frames
Codec ID : avc1
Codec ID/Info : Advanced Video Coding
Duration : 1h 57mn
Bit rate mode : Variable
Bit rate : 2 500 Kbps
Maximum bit rate : 11.5 Mbps
Width : 1 280 pixels
Height : 688 pixels
Display aspect ratio : 1.860
Frame rate mode : Constant
Frame rate : 23.976 fps
Color space : YUV
Chroma subsampling : 4:2:0
Bit depth : 8 bits
Scan type : Progressive
Bits/(Pixel*Frame) : 0.118
Stream size : 2.03 GiB (85%)
Writing library : x264


Audio
ID : 2
Format : AAC
Format/Info : Advanced Audio Codec
Format version : Version 4
Format profile : LC
Format settings, SBR : No
Codec ID : 40
Duration : 1h 57mn
Bit rate mode : Variable
Bit rate : 428 Kbps
Maximum bit rate : 561 Kbps
Channel(s) : 6 channels
Channel positions : Front: L C R, Side: L R, LFE
Sampling rate : 48.0 KHz
Stream size : 358 MiB (15%)


Plot:
A woman looks back at the past twenty men she's had relationships with in her life and wonders if one of them might be her one true love